<?xml version="1.0" standalone="no"?>
<!DOCTYPE svg PUBLIC "-//W3C//DTD SVG 20010904//EN"
 "http://www.w3.org/TR/2001/REC-SVG-20010904/DTD/svg10.dtd">
<svg version="1.0" xmlns="http://www.w3.org/2000/svg"
 width="500.000000pt" height="500.000000pt" viewBox="0 0 500.000000 500.000000"
 preserveAspectRatio="xMidYMid meet">

<g transform="translate(0.000000,500.000000) scale(0.100000,-0.100000)"
fill="#000000" stroke="none">
<path d="M2095 3420 c-3 -5 -12 -7 -19 -4 -25 9 -101 -14 -189 -57 -40 -20
-47 -28 -45 -49 1 -14 -1 -31 -6 -38 -4 -7 -6 -25 -5 -40 1 -15 -2 -35 -6 -45
-4 -9 -5 -29 -2 -42 2 -14 0 -28 -4 -31 -5 -3 -9 -16 -9 -29 0 -24 -1 -24
-107 -27 -105 -3 -108 -4 -120 -29 -7 -14 -14 -35 -16 -45 -2 -10 -7 -27 -12
-37 -4 -10 -5 -21 -1 -24 3 -3 1 -12 -4 -18 -6 -8 -8 -35 -4 -69 l7 -56 99 0
c93 0 99 -1 107 -22 5 -14 5 -28 -1 -35 -5 -7 -9 -22 -7 -35 1 -13 -1 -31 -6
-41 -4 -9 -5 -24 -2 -32 4 -8 2 -17 -4 -21 -6 -3 -9 -16 -8 -27 1 -12 -1 -30
-6 -39 -4 -10 -5 -25 -2 -33 4 -8 2 -17 -2 -19 -7 -5 -7 -209 -1 -226 1 -3 2
-8 1 -13 -3 -17 29 -75 62 -111 41 -44 125 -86 180 -91 21 -1 41 -5 44 -9 11
-10 121 -7 128 5 4 6 22 8 45 4 22 -4 41 -2 44 4 4 6 13 8 21 4 8 -3 23 -2 33
2 9 5 24 9 32 9 16 1 34 70 25 103 -3 12 -1 25 5 28 16 10 13 152 -4 158 -18
7 -95 -4 -102 -14 -7 -12 -71 -11 -79 1 -3 6 -16 10 -29 10 -26 0 -46 20 -70
69 -18 39 -21 77 -5 86 5 4 9 17 7 28 -1 12 1 27 5 34 4 7 9 31 11 55 2 24 6
50 9 58 3 8 10 35 14 60 l9 45 172 3 172 2 16 38 c8 20 17 51 18 68 2 17 6 36
10 42 4 7 4 39 0 72 l-7 60 -162 0 c-154 0 -163 1 -168 20 -3 11 -1 23 5 26 5
3 8 16 7 27 -1 12 1 30 6 40 4 9 5 24 2 32 -4 8 -1 17 4 21 6 3 9 17 6 30 -2
14 0 27 5 30 5 3 8 16 7 27 -1 12 1 30 6 40 4 9 5 24 2 32 -4 8 -2 17 4 20 5
4 7 11 4 16 -8 12 -112 12 -120 -1z"/>
<path d="M3277 3304 c-4 -4 -27 -8 -50 -9 -53 -3 -88 -23 -86 -50 1 -11 -1
-28 -6 -38 -4 -9 -5 -26 -2 -37 3 -11 1 -23 -4 -26 -5 -3 -9 -16 -9 -30 0 -19
-5 -24 -24 -24 -14 0 -27 -4 -30 -9 -3 -5 -14 -7 -24 -4 -33 8 -176 -46 -254
-96 -84 -55 -140 -118 -180 -202 -30 -65 -59 -143 -57 -155 1 -5 0 -11 -1 -14
-5 -11 -6 -225 -2 -234 3 -5 6 -22 7 -37 4 -40 47 -130 85 -172 33 -38 128
-107 147 -107 6 0 24 -7 39 -15 16 -8 50 -18 75 -21 44 -6 46 -7 43 -38 -1
-17 -5 -38 -8 -46 -3 -8 -7 -33 -9 -55 l-2 -40 49 -3 c27 -2 56 0 65 4 9 4 22
8 30 10 23 4 34 21 36 56 2 18 6 41 10 51 4 10 5 21 1 24 -13 14 27 43 50 37
13 -3 32 -3 41 1 10 4 32 9 48 11 17 2 52 12 78 22 l49 19 3 84 c1 46 0 88 -3
93 -3 5 -6 23 -8 39 -1 16 -8 35 -16 43 -14 14 -24 13 -98 -13 -8 -3 -29 -6
-47 -8 -23 -1 -33 3 -36 17 -3 10 -1 21 5 24 5 3 8 16 7 27 -1 12 1 30 6 40 4
9 5 23 2 31 -3 7 -1 18 4 23 5 5 11 29 13 54 2 24 7 52 11 62 4 9 5 24 2 32
-4 8 -1 17 4 21 6 3 9 17 6 30 -2 14 -1 27 3 29 4 3 11 25 14 49 6 41 25 63
41 48 10 -11 98 -30 112 -25 7 3 15 15 18 26 6 21 11 35 33 87 5 14 18 52 27
84 17 57 17 60 0 73 -11 7 -29 13 -42 13 -34 0 -37 1 -50 12 -7 6 -19 8 -26 5
-32 -12 -60 44 -42 86 4 9 5 23 2 31 -3 7 -2 17 3 22 5 5 10 27 12 49 3 38 2
40 -27 43 -17 2 -34 0 -38 -4z m-208 -516 c5 -14 5 -28 -1 -35 -6 -7 -8 -24
-6 -38 3 -14 1 -28 -4 -31 -5 -3 -8 -18 -7 -32 1 -15 -2 -35 -6 -44 -4 -10 -5
-25 -2 -33 4 -8 2 -17 -4 -21 -6 -3 -9 -18 -8 -32 1 -15 -2 -35 -6 -44 -4 -10
-5 -25 -2 -33 4 -8 2 -17 -4 -21 -6 -3 -9 -16 -9 -27 3 -33 -11 -69 -24 -63
-48 20 -65 35 -80 68 -9 21 -16 45 -16 52 0 8 -4 17 -8 20 -8 5 -7 80 1 106 3
8 5 22 5 30 1 24 25 81 55 128 19 30 37 44 58 49 16 3 32 10 35 14 9 16 24 10
33 -13z"/>
</g>
</svg>
